<svg xmlns="http://www.w3.org/2000/svg" xmlns:xlink="http://www.w3.org/1999/xlink" width="160" height="160" version="1.1" viewBox="0 0 160 160"><title>M Logo</title><desc>Created with Sketch.</desc><defs><rect id="path-1" width="81" height="81" x="17" y="17"/><filter id="filter-2" width="124.7%" height="124.7%" x="-12.3%" y="-9.9%" filterUnits="objectBoundingBox"><feOffset dx="0" dy="2" in="SourceAlpha" result="shadowOffsetOuter1"/><feGaussianBlur in="shadowOffsetOuter1" result="shadowBlurOuter1" stdDeviation="3"/><feComposite in="shadowBlurOuter1" in2="SourceAlpha" operator="out" result="shadowBlurOuter1"/><feColorMatrix in="shadowBlurOuter1" type="matrix" values="0 0 0 0 0 0 0 0 0 0 0 0 0 0 0 0 0 0 0.5 0"/></filter></defs><g id="M-Logo" fill="none" fill-rule="evenodd" stroke="none" stroke-width="1"><g transform="translate(18.000000, 16.000000)"><g id="Rectangle-4" transform="translate(57.500000, 57.500000) rotate(45.000000) translate(-57.500000, -57.500000)"><use fill="#000" fill-opacity="1" filter="url(#filter-2)" xlink:href="#path-1"/><rect width="76" height="76" x="19.5" y="19.5" fill="#000" fill-rule="evenodd" stroke="#FFF" stroke-linejoin="square" stroke-width="5"/></g><polygon id="M" fill="#FFF" points="71.686 31.494 89.451 31.494 89.451 37.892 83.257 37.892 83.257 76.384 89.451 76.384 89.451 82.782 70.154 82.782 70.154 76.384 76.212 76.384 76.212 37.892 58.583 83.326 57.051 83.326 39.558 37.892 39.558 76.384 45.208 76.384 45.208 82.782 27 82.782 27 76.384 33.228 76.384 33.228 37.892 27 37.892 27 31.494 44.595 31.494 58.106 66.616"/></g></g></svg>